<svg width="38" height="38" fill="none" xmlns="http://www.w3.org/2000/svg"><g filter="url(#filter0_f_377_26157)"><path d="M22.01 24.464a.889.889 0 101.18-1.328l-1.18 1.328zm-7.2-1.328a.889.889 0 101.18 1.328l-1.18-1.328zM26.2 6.11H11.8v1.78h14.4V6.11zM6.111 11.8v14.4H7.89V11.8H6.11zM11.8 31.889h14.4V30.11H11.8v1.778zM31.889 26.2V11.8H30.11v14.4h1.778zM26.2 31.889a5.689 5.689 0 005.689-5.689H30.11a3.911 3.911 0 01-3.911 3.911v1.778zM6.111 26.2a5.689 5.689 0 005.689 5.689V30.11a3.911 3.911 0 01-3.911-3.91H6.11zM11.8 6.111A5.689 5.689 0 006.111 11.8H7.89a3.911 3.911 0 013.91-3.911V6.11zM26.2 7.89a3.911 3.911 0 013.911 3.911h1.778a5.689 5.689 0 00-5.689-5.69V7.89zm-2.089 8.71c0 .172-.14.311-.311.311v1.778a2.089 2.089 0 002.089-2.089H24.11zm-.311.311a.311.311 0 01-.311-.311H21.71c0 1.154.935 2.089 2.089 2.089V16.91zm-.311-.311c0-.172.14-.311.311-.311V14.51a2.089 2.089 0 00-2.089 2.089h1.778zm.311-.311c.172 0 .311.14.311.311h1.778a2.089 2.089 0 00-2.089-2.089v1.778zm-9.289.311c0 .172-.14.311-.311.311v1.778a2.089 2.089 0 002.089-2.089H14.51zm-.311.311a.311.311 0 01-.311-.311H12.11c0 1.154.935 2.089 2.089 2.089V16.91zm-.311-.311c0-.172.14-.311.311-.311V14.51a2.089 2.089 0 00-2.089 2.089h1.778zm.311-.311c.172 0 .311.14.311.311h1.778a2.089 2.089 0 00-2.089-2.089v1.778zm8.4 7.511a102.057 102.057 0 00.59-.665l-.002-.002-.003-.002-.007-.006a1.55 1.55 0 00-.088-.073 4.478 4.478 0 00-.229-.17 6.191 6.191 0 00-.83-.482A6.937 6.937 0 0019 21.711v1.778a5.16 5.16 0 012.256.51 4.413 4.413 0 01.729.446l.027.021.002.003-.001-.002h-.002v-.002h-.001l.59-.665zM19 21.711a6.937 6.937 0 00-3.031.69 6.191 6.191 0 00-.83.482 4.478 4.478 0 00-.317.242l-.007.006-.003.003h-.001l-.001.001.59.665.59.665-.001.001-.002.001-.001.002.002-.003.027-.021c.028-.023.074-.058.139-.103a4.38 4.38 0 01.59-.342A5.16 5.16 0 0119 23.489V21.71z" fill="#FF73A4" fill-opacity=".6"/></g><path d="M15.4 17.6a1.2 1.2 0 11-2.4 0 1.2 1.2 0 012.4 0zm9.6 0a1.2 1.2 0 11-2.4 0 1.2 1.2 0 012.4 0z" fill="#FF73A4"/><path d="M22.01 25.464a.889.889 0 101.18-1.328l-1.18 1.328zm-7.2-1.328a.889.889 0 101.18 1.328l-1.18-1.328zm5.78-10.926a.889.889 0 10.818 1.578l-.818-1.578zm5.064-.622a.889.889 0 10-.818-1.578l.818 1.578zm-9.083 2.19a.89.89 0 00.856-1.558l-.856 1.558zm-3.144-3.758a.89.89 0 00-.856 1.558l.856-1.558zM26.2 6.111H11.8V7.89h14.4V6.11zM6.111 11.8v14.4H7.89V11.8H6.11zM11.8 31.889h14.4V30.11H11.8v1.778zM31.889 26.2V11.8H30.11v14.4h1.778zM26.2 31.889a5.689 5.689 0 005.689-5.689H30.11a3.911 3.911 0 01-3.911 3.911v1.778zM6.111 26.2a5.689 5.689 0 005.689 5.689V30.11a3.911 3.911 0 01-3.911-3.91H6.11zM11.8 6.111A5.689 5.689 0 006.111 11.8H7.89a3.911 3.911 0 013.91-3.911V6.11zM26.2 7.89a3.911 3.911 0 013.911 3.911h1.778a5.689 5.689 0 00-5.689-5.69V7.89zm-2.089 9.71c0 .172-.14.311-.311.311v1.778a2.089 2.089 0 002.089-2.089H24.11zm-.311.311a.311.311 0 01-.311-.311H21.71c0 1.154.935 2.089 2.089 2.089V17.91zm-.311-.311c0-.172.14-.311.311-.311V15.51a2.089 2.089 0 00-2.089 2.089h1.778zm.311-.311c.172 0 .311.14.311.311h1.778a2.089 2.089 0 00-2.089-2.089v1.778zm-9.289.311c0 .172-.14.311-.311.311v1.778a2.089 2.089 0 002.089-2.089H14.51zm-.311.311a.311.311 0 01-.311-.311H12.11c0 1.154.935 2.089 2.089 2.089V17.91zm-.311-.311c0-.172.14-.311.311-.311V15.51a2.089 2.089 0 00-2.089 2.089h1.778zm.311-.311c.172 0 .311.14.311.311h1.778a2.089 2.089 0 00-2.089-2.089v1.778zm8.4 7.511a102.057 102.057 0 00.59-.665l-.002-.002-.003-.002-.007-.006a1.55 1.55 0 00-.088-.073 4.478 4.478 0 00-.229-.17 6.191 6.191 0 00-.83-.482A6.937 6.937 0 0019 22.711v1.778a5.16 5.16 0 012.256.51 4.413 4.413 0 01.729.446l.027.021.002.003-.001-.002h-.002v-.002h-.001l.59-.665zM19 22.711a6.937 6.937 0 00-3.031.69 6.191 6.191 0 00-.83.482 4.478 4.478 0 00-.317.242l-.007.006-.003.003h-.001l-.001.001.59.665.59.665-.001.001-.002.001-.001.002.002-.003.027-.021c.028-.023.074-.058.139-.103a4.38 4.38 0 01.59-.342A5.16 5.16 0 0119 24.489V22.71zm2.409-7.922l4.246-2.2-.818-1.578-4.246 2.2.818 1.578zm-3.98-1.568l-4-2.2-.857 1.558 4 2.2.856-1.558z" fill="#FF73A4"/><defs><filter id="filter0_f_377_26157" x=".778" y=".778" width="36.444" height="36.444" filterUnits="userSpaceOnUse" color-interpolation-filters="sRGB"><feFlood flood-opacity="0" result="BackgroundImageFix"/><feBlend in="SourceGraphic" in2="BackgroundImageFix" result="shape"/><feGaussianBlur stdDeviation="2.667" result="effect1_foregroundBlur_377_26157"/></filter></defs></svg>