<svg width="58" height="58" fill="none" xmlns="http://www.w3.org/2000/svg"><path d="M20.9 23.6a2.7 2.7 0 11-5.4 0 2.7 2.7 0 015.4 0zm21.6 0a2.7 2.7 0 11-5.4 0 2.7 2.7 0 015.4 0z" fill="#FF73A4"/><path d="M35.771 41.295a2 2 0 102.658-2.99l-2.658 2.99zm-16.2-2.99a2 2 0 102.658 2.99l-2.658-2.99zM45.2 0H12.8v4h32.4V0zM0 12.8v32.4h4V12.8H0zM12.8 58h32.4v-4H12.8v4zM58 45.2V12.8h-4v32.4h4zM45.2 58C52.27 58 58 52.27 58 45.2h-4a8.8 8.8 0 01-8.8 8.8v4zM0 45.2C0 52.27 5.73 58 12.8 58v-4A8.8 8.8 0 014 45.2H0zM12.8 0C5.73 0 0 5.73 0 12.8h4A8.8 8.8 0 0112.8 4V0zm32.4 4a8.8 8.8 0 018.8 8.8h4C58 5.73 52.27 0 45.2 0v4zm-4.7 19.6a.7.7 0 01-.7.7v4a4.7 4.7 0 004.7-4.7h-4zm-.7.7a.7.7 0 01-.7-.7h-4a4.7 4.7 0 004.7 4.7v-4zm-.7-.7a.7.7 0 01.7-.7v-4a4.7 4.7 0 00-4.7 4.7h4zm.7-.7a.7.7 0 01.7.7h4a4.7 4.7 0 00-4.7-4.7v4zm-20.9.7a.7.7 0 01-.7.7v4a4.7 4.7 0 004.7-4.7h-4zm-.7.7a.7.7 0 01-.7-.7h-4a4.7 4.7 0 004.7 4.7v-4zm-.7-.7a.7.7 0 01.7-.7v-4a4.7 4.7 0 00-4.7 4.7h4zm.7-.7a.7.7 0 01.7.7h4a4.7 4.7 0 00-4.7-4.7v4zm18.9 16.9a242.217 242.217 0 001.328-1.496l-.002-.001-.003-.003-.006-.005-.017-.015a4.22 4.22 0 00-.196-.162c-.124-.098-.297-.23-.516-.382a13.917 13.917 0 00-1.867-1.086A15.608 15.608 0 0029 35.1v4c2.17 0 3.896.578 5.076 1.15a9.89 9.89 0 011.328.77 6.24 6.24 0 01.37.277l-.002-.001L37.1 39.8zM29 35.1c-2.893 0-5.216.772-6.821 1.55-.802.39-1.43.782-1.867 1.086a10.223 10.223 0 00-.712.544l-.017.015-.006.005-.003.003-.002.001L20.9 39.8c1.329 1.495 1.328 1.495 1.328 1.496h-.002c0 .002 0 .002-.002.003l.06-.049c.063-.05.167-.13.312-.23a9.89 9.89 0 011.328-.77A11.61 11.61 0 0129 39.1v-4z" fill="#FF73A4"/></svg>